<?xml version="1.0" encoding="utf-8"?>
<svg xmlns="http://www.w3.org/2000/svg" style="margin: auto; background: none; display: block; shape-rendering: auto;" width="910" height="159" preserveAspectRatio="xMidYMid">
<style type="text/css">
  text {
    text-anchor: middle; font-size: 94px; opacity: 0;
  }
</style>
<g style="transform-origin:455px 79.5px;transform:scale(1)">
<g transform="translate(455,79.5)">
  <g transform="translate(0,0)"><g class="path" style="transform: scale(0.85); transform-origin: -211.36px -8.5662px; animation: 2.38095s linear -1.39683s infinite normal forwards running pulse-71f5de6c-5883-470c-ab87-2bb2ac7d2524;"><path d="M55.08-67.68L55.08-67.68L69.09-67.68L69.09-67.68Q70.88-67.68 71.67-66.88L71.67-66.88L71.67-66.88Q72.47-66.08 72.47-64.30L72.47-64.30L72.47-27.82L72.47-27.82Q72.47-24.82 72.24-22.23L72.24-22.23L72.24-22.23Q72.00-19.65 70.78-16.17L70.78-16.17L66.08-3.38L66.08-3.38Q65.61-1.97 64.72-0.99L64.72-0.99L64.72-0.99Q63.83 0 62.32 0L62.32 0L49.82 0L49.82 0Q48.32 0 47.09-0.66L47.09-0.66L47.09-0.66Q45.87-1.32 45.50-2.82L45.50-2.82L41.17-18.14L41.17-18.14Q40.89-19.08 40.47-19.41L40.47-19.41L40.47-19.41Q40.04-19.74 39.48-19.74L39.48-19.74L38.63-19.74L38.63-19.74Q38.07-19.74 37.65-19.41L37.65-19.41L37.65-19.41Q37.22-19.08 36.94-18.14L36.94-18.14L32.52-2.82L32.52-2.82Q32.15-1.41 31.11-0.70L31.11-0.70L31.11-0.70Q30.08 0 28.58 0L28.58 0L16.17 0L16.17 0Q14.66 0 13.58-0.94L13.58-0.94L13.58-0.94Q12.50-1.88 12.03-3.38L12.03-3.38L7.33-16.36L7.33-16.36Q6.11-19.83 5.88-22.42L5.88-22.42L5.88-22.42Q5.64-25.00 5.64-28.01L5.64-28.01L5.64-64.30L5.64-64.30Q5.64-66.08 6.44-66.88L6.44-66.88L6.44-66.88Q7.24-67.68 9.02-67.68L9.02-67.68L23.50-67.68L23.50-67.68Q25.29-67.68 26.09-66.88L26.09-66.88L26.09-66.88Q26.88-66.08 26.88-64.30L26.88-64.30L26.88-29.70L32.34-41.55L32.34-41.55Q33.09-43.15 34.31-43.80L34.31-43.80L34.31-43.80Q35.53-44.46 37.32-44.46L37.32-44.46L41.27-44.46L41.27-44.46Q43.05-44.46 44.27-43.80L44.27-43.80L44.27-43.80Q45.50-43.15 46.25-41.55L46.25-41.55L51.70-29.70L51.70-64.30L51.70-64.30Q51.70-66.08 52.50-66.88L52.50-66.88L52.50-66.88Q53.30-67.68 55.08-67.68" fill="#8cd0e5" stroke="none" stroke-width="none" transform="translate(-250.4150047302246,25.273803872002496)" style="fill: rgb(140, 208, 229);"></path></g><g class="path" style="transform: scale(0.85); transform-origin: -140.625px -8.5662px; animation: 2.38095s linear -1.22222s infinite normal forwards running pulse-71f5de6c-5883-470c-ab87-2bb2ac7d2524;"><path d="M131.60 0L131.60 0L87.98 0L87.98 0Q86.20 0 85.40-0.80L85.40-0.80L85.40-0.80Q84.60-1.60 84.60-3.38L84.60-3.38L84.60-64.30L84.60-64.30Q84.60-66.08 85.40-66.88L85.40-66.88L85.40-66.88Q86.20-67.68 87.98-67.68L87.98-67.68L131.60-67.68L131.60-67.68Q133.39-67.68 134.19-66.88L134.19-66.88L134.19-66.88Q134.98-66.08 134.98-64.30L134.98-64.30L134.98-53.30L134.98-53.30Q134.98-51.51 134.19-50.71L134.19-50.71L134.19-50.71Q133.39-49.91 131.60-49.91L131.60-49.91L105.66-49.91L105.66-42.68L123.99-42.68L123.99-42.68Q125.77-42.68 126.57-41.88L126.57-41.88L126.57-41.88Q127.37-41.08 127.37-39.29L127.37-39.29L127.37-29.23L127.37-29.23Q127.37-27.45 126.57-26.65L126.57-26.65L126.57-26.65Q125.77-25.85 123.99-25.85L123.99-25.85L105.66-25.85L105.66-17.77L131.60-17.77L131.60-17.77Q133.39-17.77 134.19-16.97L134.19-16.97L134.19-16.97Q134.98-16.17 134.98-14.38L134.98-14.38L134.98-3.38L134.98-3.38Q134.98-1.60 134.19-0.80L134.19-0.80L134.19-0.80Q133.39 0 131.60 0" fill="#8cd0e5" stroke="none" stroke-width="none" transform="translate(-250.4150047302246,25.273803872002496)" style="fill: rgb(55, 104, 136);"></path></g><g class="path" style="transform: scale(0.85); transform-origin: -77.03px -8.5662px; animation: 2.38095s linear -1.04762s infinite normal forwards running pulse-71f5de6c-5883-470c-ab87-2bb2ac7d2524;"><path d="M197.31 0L197.31 0L149.46 0L149.46 0Q147.67 0 146.88-0.80L146.88-0.80L146.88-0.80Q146.08-1.60 146.08-3.38L146.08-3.38L146.08-64.30L146.08-64.30Q146.08-66.08 146.88-66.88L146.88-66.88L146.88-66.88Q147.67-67.68 149.46-67.68L149.46-67.68L164.03-67.68L164.03-67.68Q165.82-67.68 166.62-66.88L166.62-66.88L166.62-66.88Q167.41-66.08 167.41-64.30L167.41-64.30L167.41-17.77L180.29-17.77L180.29-32.99L180.29-32.99Q180.29-34.78 181.09-35.58L181.09-35.58L181.09-35.58Q181.89-36.38 183.68-36.38L183.68-36.38L197.31-36.38L197.31-36.38Q199.09-36.38 199.89-35.58L199.89-35.58L199.89-35.58Q200.69-34.78 200.69-32.99L200.69-32.99L200.69-3.38L200.69-3.38Q200.69-1.60 199.89-0.80L199.89-0.80L199.89-0.80Q199.09 0 197.31 0" fill="#8cd0e5" stroke="none" stroke-width="none" transform="translate(-250.4150047302246,25.273803872002496)" style="fill: rgb(130, 107, 136);"></path></g><g class="path" style="transform: scale(0.85); transform-origin: -15.32px -8.5662px; animation: 2.38095s linear -0.873016s infinite normal forwards running pulse-71f5de6c-5883-470c-ab87-2bb2ac7d2524;"><path d="M256.43 0L256.43 0L233.50 0L233.50 0Q221.75 0 216.06-4.70L216.06-4.70L216.06-4.70Q210.37-9.40 210.37-19.18L210.37-19.18L210.37-48.41L210.37-48.41Q210.37-58.19 216.06-62.93L216.06-62.93L216.06-62.93Q221.75-67.68 233.50-67.68L233.50-67.68L256.43-67.68L256.43-67.68Q258.22-67.68 259.02-66.88L259.02-66.88L259.02-66.88Q259.82-66.08 259.82-64.30L259.82-64.30L259.82-52.92L259.82-52.92Q259.82-51.14 259.02-50.34L259.02-50.34L259.02-50.34Q258.22-49.54 256.43-49.54L256.43-49.54L237.54-49.54L237.54-49.54Q234.62-49.54 233.21-48.36L233.21-48.36L233.21-48.36Q231.80-47.19 231.80-44.84L231.80-44.84L231.80-22.47L231.80-22.47Q231.80-20.12 233.21-19.04L233.21-19.04L233.21-19.04Q234.62-17.95 237.54-17.95L237.54-17.95L256.43-17.95L256.43-17.95Q258.22-17.95 259.02-17.16L259.02-17.16L259.02-17.16Q259.82-16.36 259.82-14.57L259.82-14.57L259.82-3.38L259.82-3.38Q259.82-1.60 259.02-0.80L259.02-0.80L259.02-0.80Q258.22 0 256.43 0" fill="#8cd0e5" stroke="none" stroke-width="none" transform="translate(-250.4150047302246,25.273803872002496)" style="fill: rgb(222, 120, 106);"></path></g><g class="path" style="transform: scale(0.85); transform-origin: 48.175px -8.56619px; animation: 2.38095s linear -0.698413s infinite normal forwards running pulse-71f5de6c-5883-470c-ab87-2bb2ac7d2524;"><path d="M327.78-49.82L327.78-17.77L327.78-17.77Q327.78-13.44 326.51-9.92L326.51-9.92L326.51-9.92Q325.24-6.39 322.00-3.90L322.00-3.90L322.00-3.90Q318.75-1.41 313.07 0L313.07 0L313.07 0Q307.38 1.41 298.64 1.41L298.64 1.41L298.64 1.41Q289.90 1.41 284.16 0L284.16 0L284.16 0Q278.43-1.41 275.19-3.90L275.19-3.90L275.19-3.90Q271.94-6.39 270.67-9.92L270.67-9.92L270.67-9.92Q269.40-13.44 269.40-17.77L269.40-17.77L269.40-49.82L269.40-49.82Q269.40-54.14 270.67-57.67L270.67-57.67L270.67-57.67Q271.94-61.19 275.19-63.73L275.19-63.73L275.19-63.73Q278.43-66.27 284.16-67.68L284.16-67.68L284.16-67.68Q289.90-69.09 298.64-69.09L298.64-69.09L298.64-69.09Q307.38-69.09 313.07-67.68L313.07-67.68L313.07-67.68Q318.75-66.27 322.00-63.73L322.00-63.73L322.00-63.73Q325.24-61.19 326.51-57.67L326.51-57.67L326.51-57.67Q327.78-54.14 327.78-49.82L327.78-49.82zM290.74-46.44L290.74-21.15L290.74-21.15Q290.74-19.27 292.15-18.00L292.15-18.00L292.15-18.00Q293.56-16.73 298.64-16.73L298.64-16.73L298.64-16.73Q303.71-16.73 305.12-18.00L305.12-18.00L305.12-18.00Q306.53-19.27 306.53-21.15L306.53-21.15L306.53-46.44L306.53-46.44Q306.53-48.22 305.12-49.49L305.12-49.49L305.12-49.49Q303.71-50.76 298.64-50.76L298.64-50.76L298.64-50.76Q293.56-50.76 292.15-49.49L292.15-49.49L292.15-49.49Q290.74-48.22 290.74-46.44L290.74-46.44" fill="#8cd0e5" stroke="none" stroke-width="none" transform="translate(-250.4150047302246,25.273803872002496)" style="fill: rgb(248, 185, 118);"></path></g><g class="path" style="transform: scale(0.85); transform-origin: 122.72px -8.5662px; animation: 2.38095s linear -0.52381s infinite normal forwards running pulse-71f5de6c-5883-470c-ab87-2bb2ac7d2524;"><path d="M357.11 0L357.11 0L343.10 0L343.10 0Q341.31 0 340.52-0.80L340.52-0.80L340.52-0.80Q339.72-1.60 339.72-3.38L339.72-3.38L339.72-64.30L339.72-64.30Q339.72-66.08 340.52-66.88L340.52-66.88L340.52-66.88Q341.31-67.68 343.10-67.68L343.10-67.68L358.23-67.68L358.23-67.68Q359.74-67.68 360.73-67.02L360.73-67.02L360.73-67.02Q361.71-66.36 362.56-64.86L362.56-64.86L371.02-49.54L371.02-49.54Q371.49-48.69 371.82-48.32L371.82-48.32L371.82-48.32Q372.15-47.94 372.71-47.94L372.71-47.94L373.56-47.94L373.56-47.94Q374.12-47.94 374.45-48.32L374.45-48.32L374.45-48.32Q374.78-48.69 375.25-49.54L375.25-49.54L383.61-64.86L383.61-64.86Q384.46-66.36 385.45-67.02L385.45-67.02L385.45-67.02Q386.43-67.68 387.94-67.68L387.94-67.68L403.17-67.68L403.17-67.68Q404.95-67.68 405.75-66.88L405.75-66.88L405.75-66.88Q406.55-66.08 406.55-64.30L406.55-64.30L406.55-3.38L406.55-3.38Q406.55-1.60 405.75-0.80L405.75-0.80L405.75-0.80Q404.95 0 403.17 0L403.17 0L388.69 0L388.69 0Q386.90 0 386.11-0.80L386.11-0.80L386.11-0.80Q385.31-1.60 385.31-3.38L385.31-3.38L385.31-36.47L379.76-26.23L379.76-26.23Q378.91-24.63 377.74-23.92L377.74-23.92L377.74-23.92Q376.56-23.22 374.78-23.22L374.78-23.22L371.02-23.22L371.02-23.22Q369.23-23.22 368.06-23.92L368.06-23.92L368.06-23.92Q366.88-24.63 366.04-26.23L366.04-26.23L360.49-36.47L360.49-3.38L360.49-3.38Q360.49-1.60 359.69-0.80L359.69-0.80L359.69-0.80Q358.89 0 357.11 0" fill="#8cd0e5" stroke="none" stroke-width="none" transform="translate(-250.4150047302246,25.273803872002496)" style="fill: rgb(252, 221, 201);"></path></g><g class="path" style="transform: scale(0.85); transform-origin: 194.3px -8.5662px; animation: 2.38095s linear -0.349206s infinite normal forwards running pulse-71f5de6c-5883-470c-ab87-2bb2ac7d2524;"><path d="M466.52 0L466.52 0L422.91 0L422.91 0Q421.12 0 420.32-0.80L420.32-0.80L420.32-0.80Q419.52-1.60 419.52-3.38L419.52-3.38L419.52-64.30L419.52-64.30Q419.52-66.08 420.32-66.88L420.32-66.88L420.32-66.88Q421.12-67.68 422.91-67.68L422.91-67.68L466.52-67.68L466.52-67.68Q468.31-67.68 469.11-66.88L469.11-66.88L469.11-66.88Q469.91-66.08 469.91-64.30L469.91-64.30L469.91-53.30L469.91-53.30Q469.91-51.51 469.11-50.71L469.11-50.71L469.11-50.71Q468.31-49.91 466.52-49.91L466.52-49.91L440.58-49.91L440.58-42.68L458.91-42.68L458.91-42.68Q460.69-42.68 461.49-41.88L461.49-41.88L461.49-41.88Q462.29-41.08 462.29-39.29L462.29-39.29L462.29-29.23L462.29-29.23Q462.29-27.45 461.49-26.65L461.49-26.65L461.49-26.65Q460.69-25.85 458.91-25.85L458.91-25.85L440.58-25.85L440.58-17.77L466.52-17.77L466.52-17.77Q468.31-17.77 469.11-16.97L469.11-16.97L469.11-16.97Q469.91-16.17 469.91-14.38L469.91-14.38L469.91-3.38L469.91-3.38Q469.91-1.60 469.11-0.80L469.11-0.80L469.11-0.80Q468.31 0 466.52 0" fill="#8cd0e5" stroke="none" stroke-width="none" transform="translate(-250.4150047302246,25.273803872002496)" style="fill: rgb(140, 208, 229);"></path></g><g class="path" style="transform: scale(0.85); transform-origin: 243.98px -20.8812px; animation: 2.38095s linear -0.174603s infinite normal forwards running pulse-71f5de6c-5883-470c-ab87-2bb2ac7d2524;"><path d="M501.68-24.63L501.68-24.63L487.11-24.63L487.11-24.63Q485.32-24.63 484.52-25.43L484.52-25.43L484.52-25.43Q483.72-26.23 483.63-28.01L483.63-28.01L482.22-64.30L482.22-64.30Q482.13-66.08 482.88-66.88L482.88-66.88L482.88-66.88Q483.63-67.68 485.42-67.68L485.42-67.68L503.37-67.68L503.37-67.68Q505.16-67.68 505.91-66.88L505.91-66.88L505.91-66.88Q506.66-66.08 506.57-64.30L506.57-64.30L505.25-28.01L505.25-28.01Q505.16-26.23 504.31-25.43L504.31-25.43L504.31-25.43Q503.46-24.63 501.68-24.63" fill="#8cd0e5" stroke="none" stroke-width="none" transform="translate(-250.4150047302246,25.273803872002496)" style="fill: rgb(55, 104, 136);"></path></g><g class="path" style="transform: scale(0.85); transform-origin: 244.025px 15.7338px; animation: 2.38095s linear 0s infinite normal forwards running pulse-71f5de6c-5883-470c-ab87-2bb2ac7d2524;"><path d="M503.09 0L503.09 0L485.79 0L485.79 0Q484.01 0 483.21-0.80L483.21-0.80L483.21-0.80Q482.41-1.60 482.41-3.38L482.41-3.38L482.41-15.70L482.41-15.70Q482.41-17.48 483.21-18.28L483.21-18.28L483.21-18.28Q484.01-19.08 485.79-19.08L485.79-19.08L503.09-19.08L503.09-19.08Q504.87-19.08 505.67-18.28L505.67-18.28L505.67-18.28Q506.47-17.48 506.47-15.70L506.47-15.70L506.47-3.38L506.47-3.38Q506.47-1.60 505.67-0.80L505.67-0.80L505.67-0.80Q504.87 0 503.09 0" fill="#8cd0e5" stroke="none" stroke-width="none" transform="translate(-250.4150047302246,25.273803872002496)" style="fill: rgb(130, 107, 136);"></path></g></g>
</g>
</g>
<style id="pulse-71f5de6c-5883-470c-ab87-2bb2ac7d2524" data-anikit="">@keyframes pulse-71f5de6c-5883-470c-ab87-2bb2ac7d2524
{
  0% {
    animation-timing-function: cubic-bezier(0.3333,0.3333,0.3124,0.6668);
    transform: scale(0.85);
  }
  0.5% {
    animation-timing-function: cubic-bezier(0.0233,-0.3865,0.6667,0.6667);
    transform: scale(1.141);
  }
  1.5% {
    animation-timing-function: cubic-bezier(0.2893,0.354,0.6158,0.6958);
    transform: scale(1.124);
  }
  11% {
    animation-timing-function: cubic-bezier(0.2861,0.4196,0.6215,0.7476);
    transform: scale(0.992);
  }
  25% {
    animation-timing-function: cubic-bezier(0.0793,0.2627,0.9972,1.5511);
    transform: scale(0.887);
  }
  49.5% {
    animation-timing-function: cubic-bezier(0.6664,0.3332,0.6667,0.6667);
    transform: scale(0.85);
  }
  50% {
    animation-timing-function: cubic-bezier(0,0.3522,1,0.6686);
    transform: scale(1.1500000000000001);
  }
  51% {
    animation-timing-function: cubic-bezier(0.2668,0.4036,0.554,0.7657);
    transform: scale(1.1320000000000001);
  }
  73.5% {
    animation-timing-function: cubic-bezier(0.2997,1.0028,0.6671,1);
    transform: scale(0.894);
  }
  100% {
    transform: scale(0.85);
  }
}</style></svg>