<?xml version="1.0" encoding="utf-8"?>
<svg xmlns="http://www.w3.org/2000/svg" style="margin: auto; background: none; display: block; shape-rendering: auto;" width="297" height="73" preserveAspectRatio="xMidYMid">
<style type="text/css">
  text {
    text-anchor: middle; font-size: 36px; opacity: 0;
  }
</style>
<g style="transform-origin: 148.5px 36.5px; transform: scale(0.692308);">
<g transform="translate(148.5,36.5)">
  <g transform="translate(0,0)"><g class="path" style="transform: translate(0px, 0px) scale(0.7); transform-origin: -166.97px -4.4928px; animation: 2.08333s linear -1.2375s infinite normal forwards running float-862c5149-fb15-4c9b-83fc-d51ff0276bef;"><path d="M13.52 0L13.52 0L5.46 0L5.46 0Q4.47 0 4.03-0.44L4.03-0.44L4.03-0.44Q3.59-0.88 3.59-1.87L3.59-1.87L3.59-35.57L3.59-35.57Q3.59-36.56 4.03-37.00L4.03-37.00L4.03-37.00Q4.47-37.44 5.46-37.44L5.46-37.44L21.37-37.44L21.37-37.44Q28.44-37.44 31.04-34.63L31.04-34.63L31.04-34.63Q33.64-31.82 33.64-27.30L33.64-27.30L33.64-20.64L33.64-20.64Q33.64-16.12 31.04-13.31L31.04-13.31L31.04-13.31Q28.44-10.50 21.37-10.50L21.37-10.50L15.39-10.50L15.39-1.87L15.39-1.87Q15.39-0.88 14.95-0.44L14.95-0.44L14.95-0.44Q14.51 0 13.52 0zM19.97-27.72L15.29-27.72L15.29-19.86L19.97-19.86L19.97-19.86Q21.48-19.86 21.94-20.64L21.94-20.64L21.94-20.64Q22.41-21.42 22.41-22.41L22.41-22.41L22.41-25.17L22.41-25.17Q22.41-26.16 21.94-26.94L21.94-26.94L21.94-26.94Q21.48-27.72 19.97-27.72L19.97-27.72" fill="#80c0e4" stroke="none" stroke-width="none" transform="translate(-185.58498573303223,14.227196578979493)" style="fill: rgb(128, 192, 228);"></path></g><g class="path" style="transform: translate(0px, 0px) scale(0.7); transform-origin: -132.6px -4.4928px; animation: 2.08333s linear -1.1s infinite normal forwards running float-862c5149-fb15-4c9b-83fc-d51ff0276bef;"><path d="M65.05 0L65.05 0L40.92 0L40.92 0Q39.94 0 39.49-0.44L39.49-0.44L39.49-0.44Q39.05-0.88 39.05-1.87L39.05-1.87L39.05-35.57L39.05-35.57Q39.05-36.56 39.49-37.00L39.49-37.00L39.49-37.00Q39.94-37.44 40.92-37.44L40.92-37.44L65.05-37.44L65.05-37.44Q66.04-37.44 66.48-37.00L66.48-37.00L66.48-37.00Q66.92-36.56 66.92-35.57L66.92-35.57L66.92-29.48L66.92-29.48Q66.92-28.50 66.48-28.05L66.48-28.05L66.48-28.05Q66.04-27.61 65.05-27.61L65.05-27.61L50.70-27.61L50.70-23.61L60.84-23.61L60.84-23.61Q61.83-23.61 62.27-23.17L62.27-23.17L62.27-23.17Q62.71-22.72 62.71-21.74L62.71-21.74L62.71-16.17L62.71-16.17Q62.71-15.18 62.27-14.74L62.27-14.74L62.27-14.74Q61.83-14.30 60.84-14.30L60.84-14.30L50.70-14.30L50.70-9.83L65.05-9.83L65.05-9.83Q66.04-9.83 66.48-9.39L66.48-9.39L66.48-9.39Q66.92-8.94 66.92-7.96L66.92-7.96L66.92-1.87L66.92-1.87Q66.92-0.88 66.48-0.44L66.48-0.44L66.48-0.44Q66.04 0 65.05 0" fill="#80c0e4" stroke="none" stroke-width="none" transform="translate(-185.58498573303223,14.227196578979493)" style="fill: rgb(225, 115, 140);"></path></g><g class="path" style="transform: translate(0px, 0px) scale(0.7); transform-origin: -99.055px -4.4928px; animation: 2.08333s linear -0.9625s infinite normal forwards running float-862c5149-fb15-4c9b-83fc-d51ff0276bef;"><path d="M90.74 0L90.74 0L82.32 0L82.32 0Q81.33 0 80.89-0.44L80.89-0.44L80.89-0.44Q80.44-0.88 80.44-1.87L80.44-1.87L80.44-27.40L72.80-27.40L72.80-27.40Q71.81-27.40 71.37-27.85L71.37-27.85L71.37-27.85Q70.93-28.29 70.93-29.28L70.93-29.28L70.93-35.57L70.93-35.57Q70.93-36.56 71.37-37.00L71.37-37.00L71.37-37.00Q71.81-37.44 72.80-37.44L72.80-37.44L100.26-37.44L100.26-37.44Q101.24-37.44 101.69-37.00L101.69-37.00L101.69-37.00Q102.13-36.56 102.13-35.57L102.13-35.57L102.13-29.28L102.13-29.28Q102.13-28.29 101.69-27.85L101.69-27.85L101.69-27.85Q101.24-27.40 100.26-27.40L100.26-27.40L92.61-27.40L92.61-1.87L92.61-1.87Q92.61-0.88 92.17-0.44L92.17-0.44L92.17-0.44Q91.73 0 90.74 0" fill="#80c0e4" stroke="none" stroke-width="none" transform="translate(-185.58498573303223,14.227196578979493)" style="fill: rgb(128, 192, 228);"></path></g><g class="path" style="transform: translate(0px, 0px) scale(0.7); transform-origin: -53.245px -4.4928px; animation: 2.08333s linear -0.825s infinite normal forwards running float-862c5149-fb15-4c9b-83fc-d51ff0276bef;"><path d="M136.55 0L136.55 0L128.13 0L128.13 0Q127.14 0 126.70-0.44L126.70-0.44L126.70-0.44Q126.26-0.88 126.26-1.87L126.26-1.87L126.26-27.40L118.61-27.40L118.61-27.40Q117.62-27.40 117.18-27.85L117.18-27.85L117.18-27.85Q116.74-28.29 116.74-29.28L116.74-29.28L116.74-35.57L116.74-35.57Q116.74-36.56 117.18-37.00L117.18-37.00L117.18-37.00Q117.62-37.44 118.61-37.44L118.61-37.44L146.07-37.44L146.07-37.44Q147.06-37.44 147.50-37.00L147.50-37.00L147.50-37.00Q147.94-36.56 147.94-35.57L147.94-35.57L147.94-29.28L147.94-29.28Q147.94-28.29 147.50-27.85L147.50-27.85L147.50-27.85Q147.06-27.40 146.07-27.40L146.07-27.40L138.42-27.40L138.42-1.87L138.42-1.87Q138.42-0.88 137.98-0.44L137.98-0.44L137.98-0.44Q137.54 0 136.55 0" fill="#80c0e4" stroke="none" stroke-width="none" transform="translate(-185.58498573303223,14.227196578979493)" style="fill: rgb(179, 180, 181);"></path></g><g class="path" style="transform: translate(0px, 0px) scale(0.7); transform-origin: -16.455px -4.4928px; animation: 2.08333s linear -0.6875s infinite normal forwards running float-862c5149-fb15-4c9b-83fc-d51ff0276bef;"><path d="M162.92 0L162.92 0L154.86 0L154.86 0Q153.87 0 153.43-0.44L153.43-0.44L153.43-0.44Q152.98-0.88 152.98-1.87L152.98-1.87L152.98-35.57L152.98-35.57Q152.98-36.56 153.43-37.00L153.43-37.00L153.43-37.00Q153.87-37.44 154.86-37.44L154.86-37.44L162.92-37.44L162.92-37.44Q163.90-37.44 164.35-37.00L164.35-37.00L164.35-37.00Q164.79-36.56 164.79-35.57L164.79-35.57L164.79-24.28L173.47-24.28L173.47-35.57L173.47-35.57Q173.47-36.56 173.91-37.00L173.91-37.00L173.91-37.00Q174.36-37.44 175.34-37.44L175.34-37.44L183.40-37.44L183.40-37.44Q184.39-37.44 184.83-37.00L184.83-37.00L184.83-37.00Q185.28-36.56 185.28-35.57L185.28-35.57L185.28-1.87L185.28-1.87Q185.28-0.88 184.83-0.44L184.83-0.44L184.83-0.44Q184.39 0 183.40 0L183.40 0L175.34 0L175.34 0Q174.36 0 173.91-0.44L173.91-0.44L173.91-0.44Q173.47-0.88 173.47-1.87L173.47-1.87L173.47-13.42L164.79-13.42L164.79-1.87L164.79-1.87Q164.79-0.88 164.35-0.44L164.35-0.44L164.35-0.44Q163.90 0 162.92 0" fill="#80c0e4" stroke="none" stroke-width="none" transform="translate(-185.58498573303223,14.227196578979493)" style="fill: rgb(98, 224, 235);"></path></g><g class="path" style="transform: translate(0px, 0px) scale(0.7); transform-origin: 22.26px -4.4928px; animation: 2.08333s linear -0.55s infinite normal forwards running float-862c5149-fb15-4c9b-83fc-d51ff0276bef;"><path d="M206.02-26.52L206.02-26.52L203.58-18.62L211.74-18.62L209.30-26.52L209.30-26.52Q209.09-26.99 208.86-27.20L208.86-27.20L208.86-27.20Q208.62-27.40 208.31-27.40L208.31-27.40L207.01-27.40L207.01-27.40Q206.70-27.40 206.47-27.20L206.47-27.20L206.47-27.20Q206.23-26.99 206.02-26.52zM203.06-9.15L203.06-1.87L203.06-1.87Q203.06-0.88 202.62-0.44L202.62-0.44L202.62-0.44Q202.18 0 201.19 0L201.19 0L193.54 0L193.54 0Q192.56 0 192.11-0.44L192.11-0.44L192.11-0.44Q191.67-0.88 191.67-1.87L191.67-1.87L191.67-15.60L191.67-15.60Q191.67-17.16 192.17-19.19L192.17-19.19L192.17-19.19Q192.66-21.22 193.70-23.92L193.70-23.92L198.22-35.72L198.22-35.72Q198.54-36.61 199.19-37.02L199.19-37.02L199.19-37.02Q199.84-37.44 200.88-37.44L200.88-37.44L214.86-37.44L214.86-37.44Q215.85-37.44 216.50-37.02L216.50-37.02L216.50-37.02Q217.15-36.61 217.46-35.72L217.46-35.72L221.99-23.92L221.99-23.92Q223.03-21.22 223.52-19.19L223.52-19.19L223.52-19.19Q224.02-17.16 224.02-15.60L224.02-15.60L224.02-1.87L224.02-1.87Q224.02-0.88 223.57-0.44L223.57-0.44L223.57-0.44Q223.13 0 222.14 0L222.14 0L214.29 0L214.29 0Q213.25 0 212.76-0.44L212.76-0.44L212.76-0.44Q212.26-0.88 212.26-1.87L212.26-1.87L212.26-9.15L203.06-9.15" fill="#80c0e4" stroke="none" stroke-width="none" transform="translate(-185.58498573303223,14.227196578979493)" style="fill: rgb(128, 192, 228);"></path></g><g class="path" style="transform: translate(0px, 0px) scale(0.7); transform-origin: 58.295px -4.4928px; animation: 2.08333s linear -0.4125s infinite normal forwards running float-862c5149-fb15-4c9b-83fc-d51ff0276bef;"><path d="M248.09 0L248.09 0L239.67 0L239.67 0Q238.68 0 238.24-0.44L238.24-0.44L238.24-0.44Q237.80-0.88 237.80-1.87L237.80-1.87L237.80-27.40L230.15-27.40L230.15-27.40Q229.16-27.40 228.72-27.85L228.72-27.85L228.72-27.85Q228.28-28.29 228.28-29.28L228.28-29.28L228.28-35.57L228.28-35.57Q228.28-36.56 228.72-37.00L228.72-37.00L228.72-37.00Q229.16-37.44 230.15-37.44L230.15-37.44L257.61-37.44L257.61-37.44Q258.60-37.44 259.04-37.00L259.04-37.00L259.04-37.00Q259.48-36.56 259.48-35.57L259.48-35.57L259.48-29.28L259.48-29.28Q259.48-28.29 259.04-27.85L259.04-27.85L259.04-27.85Q258.60-27.40 257.61-27.40L257.61-27.40L249.96-27.40L249.96-1.87L249.96-1.87Q249.96-0.88 249.52-0.44L249.52-0.44L249.52-0.44Q249.08 0 248.09 0" fill="#80c0e4" stroke="none" stroke-width="none" transform="translate(-185.58498573303223,14.227196578979493)" style="fill: rgb(225, 115, 140);"></path></g><g class="path" style="transform: translate(0px, 0px) scale(0.7); transform-origin: 105.665px -4.4928px; animation: 2.08333s linear -0.275s infinite normal forwards running float-862c5149-fb15-4c9b-83fc-d51ff0276bef;"><path d="M286.16 0L286.16 0L278.10 0L278.10 0Q277.11 0 276.67-0.44L276.67-0.44L276.67-0.44Q276.22-0.88 276.22-1.87L276.22-1.87L276.22-35.57L276.22-35.57Q276.22-36.56 276.67-37.00L276.67-37.00L276.67-37.00Q277.11-37.44 278.10-37.44L278.10-37.44L294.01-37.44L294.01-37.44Q301.08-37.44 303.68-34.63L303.68-34.63L303.68-34.63Q306.28-31.82 306.28-27.30L306.28-27.30L306.28-20.64L306.28-20.64Q306.28-16.12 303.68-13.31L303.68-13.31L303.68-13.31Q301.08-10.50 294.01-10.50L294.01-10.50L288.03-10.50L288.03-1.87L288.03-1.87Q288.03-0.88 287.59-0.44L287.59-0.44L287.59-0.44Q287.14 0 286.16 0zM292.60-27.72L287.92-27.72L287.92-19.86L292.60-19.86L292.60-19.86Q294.11-19.86 294.58-20.64L294.58-20.64L294.58-20.64Q295.05-21.42 295.05-22.41L295.05-22.41L295.05-25.17L295.05-25.17Q295.05-26.16 294.58-26.94L294.58-26.94L294.58-26.94Q294.11-27.72 292.60-27.72L292.60-27.72" fill="#80c0e4" stroke="none" stroke-width="none" transform="translate(-185.58498573303223,14.227196578979493)" style="fill: rgb(128, 192, 228);"></path></g><g class="path" style="transform: translate(0px, 0px) scale(0.7); transform-origin: 140.04px -4.4928px; animation: 2.08333s linear -0.1375s infinite normal forwards running float-862c5149-fb15-4c9b-83fc-d51ff0276bef;"><path d="M337.69 0L337.69 0L313.56 0L313.56 0Q312.57 0 312.13-0.44L312.13-0.44L312.13-0.44Q311.69-0.88 311.69-1.87L311.69-1.87L311.69-35.57L311.69-35.57Q311.69-36.56 312.13-37.00L312.13-37.00L312.13-37.00Q312.57-37.44 313.56-37.44L313.56-37.44L337.69-37.44L337.69-37.44Q338.68-37.44 339.12-37.00L339.12-37.00L339.12-37.00Q339.56-36.56 339.56-35.57L339.56-35.57L339.56-29.48L339.56-29.48Q339.56-28.50 339.12-28.05L339.12-28.05L339.12-28.05Q338.68-27.61 337.69-27.61L337.69-27.61L323.34-27.61L323.34-23.61L333.48-23.61L333.48-23.61Q334.46-23.61 334.91-23.17L334.91-23.17L334.91-23.17Q335.35-22.72 335.35-21.74L335.35-21.74L335.35-16.17L335.35-16.17Q335.35-15.18 334.91-14.74L334.91-14.74L334.91-14.74Q334.46-14.30 333.48-14.30L333.48-14.30L323.34-14.30L323.34-9.83L337.69-9.83L337.69-9.83Q338.68-9.83 339.12-9.39L339.12-9.39L339.12-9.39Q339.56-8.94 339.56-7.96L339.56-7.96L339.56-1.87L339.56-1.87Q339.56-0.88 339.12-0.44L339.12-0.44L339.12-0.44Q338.68 0 337.69 0" fill="#80c0e4" stroke="none" stroke-width="none" transform="translate(-185.58498573303223,14.227196578979493)" style="fill: rgb(179, 180, 181);"></path></g><g class="path" style="transform: translate(0px, 0px) scale(0.7); transform-origin: 173.575px -4.4928px; animation: 2.08333s linear 0s infinite normal forwards running float-862c5149-fb15-4c9b-83fc-d51ff0276bef;"><path d="M363.38 0L363.38 0L354.95 0L354.95 0Q353.96 0 353.52-0.44L353.52-0.44L353.52-0.44Q353.08-0.88 353.08-1.87L353.08-1.87L353.08-27.40L345.44-27.40L345.44-27.40Q344.45-27.40 344.01-27.85L344.01-27.85L344.01-27.85Q343.56-28.29 343.56-29.28L343.56-29.28L343.56-35.57L343.56-35.57Q343.56-36.56 344.01-37.00L344.01-37.00L344.01-37.00Q344.45-37.44 345.44-37.44L345.44-37.44L372.89-37.44L372.89-37.44Q373.88-37.44 374.32-37.00L374.32-37.00L374.32-37.00Q374.76-36.56 374.76-35.57L374.76-35.57L374.76-29.28L374.76-29.28Q374.76-28.29 374.32-27.85L374.32-27.85L374.32-27.85Q373.88-27.40 372.89-27.40L372.89-27.40L365.25-27.40L365.25-1.87L365.25-1.87Q365.25-0.88 364.81-0.44L364.81-0.44L364.81-0.44Q364.36 0 363.38 0" fill="#80c0e4" stroke="none" stroke-width="none" transform="translate(-185.58498573303223,14.227196578979493)" style="fill: rgb(98, 224, 235);"></path></g></g>
</g>
</g>
<style id="float-862c5149-fb15-4c9b-83fc-d51ff0276bef" data-anikit="">@keyframes float-862c5149-fb15-4c9b-83fc-d51ff0276bef {
  0% {
    animation-timing-function: cubic-bezier(0,0.4,0.6,1);
    transform: translate(0,0) scale(0.7000000000000001);
    box-shadow: 0 0 0 rgba(0,0,0,.3);
  }
  50% {
    animation-timing-function: cubic-bezier(0.4,0,1,0.6);
    transform: translate(0,-15px) scale(1);
    box-shadow: 0 23px 5px -15px rgba(0,0,0,.2)
  }
  100% {
    transform: translate(0,0) scale(0.7000000000000001);
    box-shadow: 0 0 0 rgba(0,0,0,.3)
  }
} </style></svg>