<?xml version="1.0" encoding="utf-8"?><svg xmlns="http://www.w3.org/2000/svg" width="946" height="159" preserveAspectRatio="xMidYMid" xmlns:xlink="http://www.w3.org/1999/xlink" style="margin-right:-2px;display:block;background-repeat-y:initial;background-repeat-x:initial;animation-play-state:paused" ><style type="text/css" style="animation-play-state:paused" >text {
    text-anchor: middle; font-size: 94px; opacity: 0;
  }</style>


<g style="transform-origin:473px 79.5px;transform:matrix(1, 0, 0, 1, 0, 0);animation-play-state:paused" ><g transform="translate(473,79.5)" style="transform:matrix(1, 0, 0, 1, 473, 79.5);animation-play-state:paused" ><g transform="translate(0,0)" style="transform:matrix(1, 0, 0, 1, 0, 0);animation-play-state:paused" ><g class="path" style="transform-origin:-354.9px -8.26454px;animation-timing-function:linear;animation-play-state:paused;animation-name:static-372d3821-2f81-4dc8-86a9-1ac719f406a0;animation-iteration-count:infinite;animation-fill-mode:forwards;animation-duration:1s;animation-delay:-0.609231s" ><path d="M55.08-67.68L55.08-67.68L69.09-67.68L69.09-67.68Q70.88-67.68 71.67-66.88L71.67-66.88L71.67-66.88Q72.47-66.08 72.47-64.30L72.47-64.30L72.47-27.82L72.47-27.82Q72.47-24.82 72.24-22.23L72.24-22.23L72.24-22.23Q72.00-19.65 70.78-16.17L70.78-16.17L66.08-3.38L66.08-3.38Q65.61-1.97 64.72-0.99L64.72-0.99L64.72-0.99Q63.83 0 62.32 0L62.32 0L49.82 0L49.82 0Q48.32 0 47.09-0.66L47.09-0.66L47.09-0.66Q45.87-1.32 45.50-2.82L45.50-2.82L41.17-18.14L41.17-18.14Q40.89-19.08 40.47-19.41L40.47-19.41L40.47-19.41Q40.04-19.74 39.48-19.74L39.48-19.74L38.63-19.74L38.63-19.74Q38.07-19.74 37.65-19.41L37.65-19.41L37.65-19.41Q37.22-19.08 36.94-18.14L36.94-18.14L32.52-2.82L32.52-2.82Q32.15-1.41 31.11-0.70L31.11-0.70L31.11-0.70Q30.08 0 28.58 0L28.58 0L16.17 0L16.17 0Q14.66 0 13.58-0.94L13.58-0.94L13.58-0.94Q12.50-1.88 12.03-3.38L12.03-3.38L7.33-16.36L7.33-16.36Q6.11-19.83 5.88-22.42L5.88-22.42L5.88-22.42Q5.64-25.00 5.64-28.01L5.64-28.01L5.64-64.30L5.64-64.30Q5.64-66.08 6.44-66.88L6.44-66.88L6.44-66.88Q7.24-67.68 9.02-67.68L9.02-67.68L23.50-67.68L23.50-67.68Q25.29-67.68 26.09-66.88L26.09-66.88L26.09-66.88Q26.88-66.08 26.88-64.30L26.88-64.30L26.88-29.70L32.34-41.55L32.34-41.55Q33.09-43.15 34.31-43.80L34.31-43.80L34.31-43.80Q35.53-44.46 37.32-44.46L37.32-44.46L41.27-44.46L41.27-44.46Q43.05-44.46 44.27-43.80L44.27-43.80L44.27-43.80Q45.50-43.15 46.25-41.55L46.25-41.55L51.70-29.70L51.70-64.30L51.70-64.30Q51.70-66.08 52.50-66.88L52.50-66.88L52.50-66.88Q53.30-67.68 55.08-67.68" fill="#8cd0e5" stroke="none" stroke-width="none" transform="translate(-393.95501708984375,25.57546011117789)" style="transform:matrix(1, 0, 0, 1, -393.955, 25.5755);fill:rgb(140, 208, 229);animation-play-state:paused" ></path></g>
<g class="path" style="transform-origin:-284.165px -8.26454px;animation-timing-function:linear;animation-play-state:paused;animation-name:static-372d3821-2f81-4dc8-86a9-1ac719f406a0;animation-iteration-count:infinite;animation-fill-mode:forwards;animation-duration:1s;animation-delay:-0.558462s" ><path d="M131.60 0L131.60 0L87.98 0L87.98 0Q86.20 0 85.40-0.80L85.40-0.80L85.40-0.80Q84.60-1.60 84.60-3.38L84.60-3.38L84.60-64.30L84.60-64.30Q84.60-66.08 85.40-66.88L85.40-66.88L85.40-66.88Q86.20-67.68 87.98-67.68L87.98-67.68L131.60-67.68L131.60-67.68Q133.39-67.68 134.19-66.88L134.19-66.88L134.19-66.88Q134.98-66.08 134.98-64.30L134.98-64.30L134.98-53.30L134.98-53.30Q134.98-51.51 134.19-50.71L134.19-50.71L134.19-50.71Q133.39-49.91 131.60-49.91L131.60-49.91L105.66-49.91L105.66-42.68L123.99-42.68L123.99-42.68Q125.77-42.68 126.57-41.88L126.57-41.88L126.57-41.88Q127.37-41.08 127.37-39.29L127.37-39.29L127.37-29.23L127.37-29.23Q127.37-27.45 126.57-26.65L126.57-26.65L126.57-26.65Q125.77-25.85 123.99-25.85L123.99-25.85L105.66-25.85L105.66-17.77L131.60-17.77L131.60-17.77Q133.39-17.77 134.19-16.97L134.19-16.97L134.19-16.97Q134.98-16.17 134.98-14.38L134.98-14.38L134.98-3.38L134.98-3.38Q134.98-1.60 134.19-0.80L134.19-0.80L134.19-0.80Q133.39 0 131.60 0" fill="#8cd0e5" stroke="none" stroke-width="none" transform="translate(-393.95501708984375,25.57546011117789)" style="transform:matrix(1, 0, 0, 1, -393.955, 25.5755);fill:rgb(55, 104, 136);animation-play-state:paused" ></path></g>
<g class="path" style="transform-origin:-220.57px -8.26454px;animation-timing-function:linear;animation-play-state:paused;animation-name:static-372d3821-2f81-4dc8-86a9-1ac719f406a0;animation-iteration-count:infinite;animation-fill-mode:forwards;animation-duration:1s;animation-delay:-0.507692s" ><path d="M197.31 0L197.31 0L149.46 0L149.46 0Q147.67 0 146.88-0.80L146.88-0.80L146.88-0.80Q146.08-1.60 146.08-3.38L146.08-3.38L146.08-64.30L146.08-64.30Q146.08-66.08 146.88-66.88L146.88-66.88L146.88-66.88Q147.67-67.68 149.46-67.68L149.46-67.68L164.03-67.68L164.03-67.68Q165.82-67.68 166.62-66.88L166.62-66.88L166.62-66.88Q167.41-66.08 167.41-64.30L167.41-64.30L167.41-17.77L180.29-17.77L180.29-32.99L180.29-32.99Q180.29-34.78 181.09-35.58L181.09-35.58L181.09-35.58Q181.89-36.38 183.68-36.38L183.68-36.38L197.31-36.38L197.31-36.38Q199.09-36.38 199.89-35.58L199.89-35.58L199.89-35.58Q200.69-34.78 200.69-32.99L200.69-32.99L200.69-3.38L200.69-3.38Q200.69-1.60 199.89-0.80L199.89-0.80L199.89-0.80Q199.09 0 197.31 0" fill="#8cd0e5" stroke="none" stroke-width="none" transform="translate(-393.95501708984375,25.57546011117789)" style="transform:matrix(1, 0, 0, 1, -393.955, 25.5755);fill:rgb(130, 107, 136);animation-play-state:paused" ></path></g>
<g class="path" style="transform-origin:-158.86px -8.26454px;animation-timing-function:linear;animation-play-state:paused;animation-name:static-372d3821-2f81-4dc8-86a9-1ac719f406a0;animation-iteration-count:infinite;animation-fill-mode:forwards;animation-duration:1s;animation-delay:-0.456923s" ><path d="M256.43 0L256.43 0L233.50 0L233.50 0Q221.75 0 216.06-4.70L216.06-4.70L216.06-4.70Q210.37-9.40 210.37-19.18L210.37-19.18L210.37-48.41L210.37-48.41Q210.37-58.19 216.06-62.93L216.06-62.93L216.06-62.93Q221.75-67.68 233.50-67.68L233.50-67.68L256.43-67.68L256.43-67.68Q258.22-67.68 259.02-66.88L259.02-66.88L259.02-66.88Q259.82-66.08 259.82-64.30L259.82-64.30L259.82-52.92L259.82-52.92Q259.82-51.14 259.02-50.34L259.02-50.34L259.02-50.34Q258.22-49.54 256.43-49.54L256.43-49.54L237.54-49.54L237.54-49.54Q234.62-49.54 233.21-48.36L233.21-48.36L233.21-48.36Q231.80-47.19 231.80-44.84L231.80-44.84L231.80-22.47L231.80-22.47Q231.80-20.12 233.21-19.04L233.21-19.04L233.21-19.04Q234.62-17.95 237.54-17.95L237.54-17.95L256.43-17.95L256.43-17.95Q258.22-17.95 259.02-17.16L259.02-17.16L259.02-17.16Q259.82-16.36 259.82-14.57L259.82-14.57L259.82-3.38L259.82-3.38Q259.82-1.60 259.02-0.80L259.02-0.80L259.02-0.80Q258.22 0 256.43 0" fill="#8cd0e5" stroke="none" stroke-width="none" transform="translate(-393.95501708984375,25.57546011117789)" style="transform:matrix(1, 0, 0, 1, -393.955, 25.5755);fill:rgb(222, 120, 106);animation-play-state:paused" ></path></g>
<g class="path" style="transform-origin:-95.365px -8.26453px;animation-timing-function:linear;animation-play-state:paused;animation-name:static-372d3821-2f81-4dc8-86a9-1ac719f406a0;animation-iteration-count:infinite;animation-fill-mode:forwards;animation-duration:1s;animation-delay:-0.406154s" ><path d="M327.78-49.82L327.78-17.77L327.78-17.77Q327.78-13.44 326.51-9.92L326.51-9.92L326.51-9.92Q325.24-6.39 322.00-3.90L322.00-3.90L322.00-3.90Q318.75-1.41 313.07 0L313.07 0L313.07 0Q307.38 1.41 298.64 1.41L298.64 1.41L298.64 1.41Q289.90 1.41 284.16 0L284.16 0L284.16 0Q278.43-1.41 275.19-3.90L275.19-3.90L275.19-3.90Q271.94-6.39 270.67-9.92L270.67-9.92L270.67-9.92Q269.40-13.44 269.40-17.77L269.40-17.77L269.40-49.82L269.40-49.82Q269.40-54.14 270.67-57.67L270.67-57.67L270.67-57.67Q271.94-61.19 275.19-63.73L275.19-63.73L275.19-63.73Q278.43-66.27 284.16-67.68L284.16-67.68L284.16-67.68Q289.90-69.09 298.64-69.09L298.64-69.09L298.64-69.09Q307.38-69.09 313.07-67.68L313.07-67.68L313.07-67.68Q318.75-66.27 322.00-63.73L322.00-63.73L322.00-63.73Q325.24-61.19 326.51-57.67L326.51-57.67L326.51-57.67Q327.78-54.14 327.78-49.82L327.78-49.82zM290.74-46.44L290.74-21.15L290.74-21.15Q290.74-19.27 292.15-18.00L292.15-18.00L292.15-18.00Q293.56-16.73 298.64-16.73L298.64-16.73L298.64-16.73Q303.71-16.73 305.12-18.00L305.12-18.00L305.12-18.00Q306.53-19.27 306.53-21.15L306.53-21.15L306.53-46.44L306.53-46.44Q306.53-48.22 305.12-49.49L305.12-49.49L305.12-49.49Q303.71-50.76 298.64-50.76L298.64-50.76L298.64-50.76Q293.56-50.76 292.15-49.49L292.15-49.49L292.15-49.49Q290.74-48.22 290.74-46.44L290.74-46.44" fill="#8cd0e5" stroke="none" stroke-width="none" transform="translate(-393.95501708984375,25.57546011117789)" style="transform:matrix(1, 0, 0, 1, -393.955, 25.5755);fill:rgb(248, 185, 118);animation-play-state:paused" ></path></g>
<g class="path" style="transform-origin:-20.82px -8.26454px;animation-timing-function:linear;animation-play-state:paused;animation-name:static-372d3821-2f81-4dc8-86a9-1ac719f406a0;animation-iteration-count:infinite;animation-fill-mode:forwards;animation-duration:1s;animation-delay:-0.355385s" ><path d="M357.11 0L357.11 0L343.10 0L343.10 0Q341.31 0 340.52-0.80L340.52-0.80L340.52-0.80Q339.72-1.60 339.72-3.38L339.72-3.38L339.72-64.30L339.72-64.30Q339.72-66.08 340.52-66.88L340.52-66.88L340.52-66.88Q341.31-67.68 343.10-67.68L343.10-67.68L358.23-67.68L358.23-67.68Q359.74-67.68 360.73-67.02L360.73-67.02L360.73-67.02Q361.71-66.36 362.56-64.86L362.56-64.86L371.02-49.54L371.02-49.54Q371.49-48.69 371.82-48.32L371.82-48.32L371.82-48.32Q372.15-47.94 372.71-47.94L372.71-47.94L373.56-47.94L373.56-47.94Q374.12-47.94 374.45-48.32L374.45-48.32L374.45-48.32Q374.78-48.69 375.25-49.54L375.25-49.54L383.61-64.86L383.61-64.86Q384.46-66.36 385.45-67.02L385.45-67.02L385.45-67.02Q386.43-67.68 387.94-67.68L387.94-67.68L403.17-67.68L403.17-67.68Q404.95-67.68 405.75-66.88L405.75-66.88L405.75-66.88Q406.55-66.08 406.55-64.30L406.55-64.30L406.55-3.38L406.55-3.38Q406.55-1.60 405.75-0.80L405.75-0.80L405.75-0.80Q404.95 0 403.17 0L403.17 0L388.69 0L388.69 0Q386.90 0 386.11-0.80L386.11-0.80L386.11-0.80Q385.31-1.60 385.31-3.38L385.31-3.38L385.31-36.47L379.76-26.23L379.76-26.23Q378.91-24.63 377.74-23.92L377.74-23.92L377.74-23.92Q376.56-23.22 374.78-23.22L374.78-23.22L371.02-23.22L371.02-23.22Q369.23-23.22 368.06-23.92L368.06-23.92L368.06-23.92Q366.88-24.63 366.04-26.23L366.04-26.23L360.49-36.47L360.49-3.38L360.49-3.38Q360.49-1.60 359.69-0.80L359.69-0.80L359.69-0.80Q358.89 0 357.11 0" fill="#8cd0e5" stroke="none" stroke-width="none" transform="translate(-393.95501708984375,25.57546011117789)" style="transform:matrix(1, 0, 0, 1, -393.955, 25.5755);fill:rgb(252, 221, 201);animation-play-state:paused" ></path></g>
<g class="path" style="transform-origin:50.76px -8.26454px;animation-timing-function:linear;animation-play-state:paused;animation-name:static-372d3821-2f81-4dc8-86a9-1ac719f406a0;animation-iteration-count:infinite;animation-fill-mode:forwards;animation-duration:1s;animation-delay:-0.304615s" ><path d="M466.52 0L466.52 0L422.91 0L422.91 0Q421.12 0 420.32-0.80L420.32-0.80L420.32-0.80Q419.52-1.60 419.52-3.38L419.52-3.38L419.52-64.30L419.52-64.30Q419.52-66.08 420.32-66.88L420.32-66.88L420.32-66.88Q421.12-67.68 422.91-67.68L422.91-67.68L466.52-67.68L466.52-67.68Q468.31-67.68 469.11-66.88L469.11-66.88L469.11-66.88Q469.91-66.08 469.91-64.30L469.91-64.30L469.91-53.30L469.91-53.30Q469.91-51.51 469.11-50.71L469.11-50.71L469.11-50.71Q468.31-49.91 466.52-49.91L466.52-49.91L440.58-49.91L440.58-42.68L458.91-42.68L458.91-42.68Q460.69-42.68 461.49-41.88L461.49-41.88L461.49-41.88Q462.29-41.08 462.29-39.29L462.29-39.29L462.29-29.23L462.29-29.23Q462.29-27.45 461.49-26.65L461.49-26.65L461.49-26.65Q460.69-25.85 458.91-25.85L458.91-25.85L440.58-25.85L440.58-17.77L466.52-17.77L466.52-17.77Q468.31-17.77 469.11-16.97L469.11-16.97L469.11-16.97Q469.91-16.17 469.91-14.38L469.91-14.38L469.91-3.38L469.91-3.38Q469.91-1.60 469.11-0.80L469.11-0.80L469.11-0.80Q468.31 0 466.52 0" fill="#8cd0e5" stroke="none" stroke-width="none" transform="translate(-393.95501708984375,25.57546011117789)" style="transform:matrix(1, 0, 0, 1, -393.955, 25.5755);fill:rgb(140, 208, 229);animation-play-state:paused" ></path></g>
<g class="path" style="transform-origin:137.05px -8.26454px;animation-timing-function:linear;animation-play-state:paused;animation-name:static-372d3821-2f81-4dc8-86a9-1ac719f406a0;animation-iteration-count:infinite;animation-fill-mode:forwards;animation-duration:1s;animation-delay:-0.253846s" ><path d="M541.63 0L541.63 0L505.53 0L505.53 0Q503.75 0 502.95-0.80L502.95-0.80L502.95-0.80Q502.15-1.60 502.15-3.38L502.15-3.38L502.15-64.30L502.15-64.30Q502.15-66.08 502.95-66.88L502.95-66.88L502.95-66.88Q503.75-67.68 505.53-67.68L505.53-67.68L535.52-67.68L535.52-67.68Q544.73-67.68 549.15-64.16L549.15-64.16L549.15-64.16Q553.57-60.63 553.57-53.30L553.57-53.30L553.57-48.79L553.57-48.79Q553.57-44.84 552.20-42.35L552.20-42.35L552.20-42.35Q550.84-39.86 548.02-38.63L548.02-38.63L548.02-38.63Q554.04-38.07 556.95-34.50L556.95-34.50L556.95-34.50Q559.86-30.93 559.86-24.06L559.86-24.06L559.86-15.42L559.86-15.42Q559.86-7.52 555.40-3.76L555.40-3.76L555.40-3.76Q550.93 0 541.63 0zM531.29-51.70L523.30-51.70L523.30-41.55L531.29-41.55L531.29-41.55Q533.07-41.55 533.97-42.49L533.97-42.49L533.97-42.49Q534.86-43.43 534.86-45.31L534.86-45.31L534.86-47.94L534.86-47.94Q534.86-49.82 533.97-50.76L533.97-50.76L533.97-50.76Q533.07-51.70 531.29-51.70L531.29-51.70zM535.52-27.07L523.30-27.07L523.30-15.98L535.52-15.98L535.52-15.98Q537.30-15.98 538.20-16.92L538.20-16.92L538.20-16.92Q539.09-17.86 539.09-19.74L539.09-19.74L539.09-23.41L539.09-23.41Q539.09-25.29 538.20-26.18L538.20-26.18L538.20-26.18Q537.30-27.07 535.52-27.07L535.52-27.07" fill="#8cd0e5" stroke="none" stroke-width="none" transform="translate(-393.95501708984375,25.57546011117789)" style="transform:matrix(1, 0, 0, 1, -393.955, 25.5755);fill:rgb(55, 104, 136);animation-play-state:paused" ></path></g>
<g class="path" style="transform-origin:204.17px -8.26454px;animation-timing-function:linear;animation-play-state:paused;animation-name:static-372d3821-2f81-4dc8-86a9-1ac719f406a0;animation-iteration-count:infinite;animation-fill-mode:forwards;animation-duration:1s;animation-delay:-0.203077s" ><path d="M594.83-47.94L594.83-47.94L590.41-33.65L605.17-33.65L600.75-47.94L600.75-47.94Q600.38-48.79 599.96-49.16L599.96-49.16L599.96-49.16Q599.53-49.54 598.97-49.54L598.97-49.54L596.62-49.54L596.62-49.54Q596.05-49.54 595.63-49.16L595.63-49.16L595.63-49.16Q595.21-48.79 594.83-47.94zM589.47-16.54L589.47-3.38L589.47-3.38Q589.47-1.60 588.67-0.80L588.67-0.80L588.67-0.80Q587.88 0 586.09 0L586.09 0L572.27 0L572.27 0Q570.49 0 569.69-0.80L569.69-0.80L569.69-0.80Q568.89-1.60 568.89-3.38L568.89-3.38L568.89-28.20L568.89-28.20Q568.89-31.02 569.78-34.69L569.78-34.69L569.78-34.69Q570.67-38.35 572.55-43.24L572.55-43.24L580.73-64.58L580.73-64.58Q581.30-66.18 582.47-66.93L582.47-66.93L582.47-66.93Q583.65-67.68 585.53-67.68L585.53-67.68L610.81-67.68L610.81-67.68Q612.60-67.68 613.77-66.93L613.77-66.93L613.77-66.93Q614.95-66.18 615.51-64.58L615.51-64.58L623.69-43.24L623.69-43.24Q625.57-38.35 626.46-34.69L626.46-34.69L626.46-34.69Q627.36-31.02 627.36-28.20L627.36-28.20L627.36-3.38L627.36-3.38Q627.36-1.60 626.56-0.80L626.56-0.80L626.56-0.80Q625.76 0 623.97 0L623.97 0L609.78 0L609.78 0Q607.90 0 607.00-0.80L607.00-0.80L607.00-0.80Q606.11-1.60 606.11-3.38L606.11-3.38L606.11-16.54L589.47-16.54" fill="#8cd0e5" stroke="none" stroke-width="none" transform="translate(-393.95501708984375,25.57546011117789)" style="transform:matrix(1, 0, 0, 1, -393.955, 25.5755);fill:rgb(130, 107, 136);animation-play-state:paused" ></path></g>
<g class="path" style="transform-origin:268.65px -8.26454px;animation-timing-function:linear;animation-play-state:paused;animation-name:static-372d3821-2f81-4dc8-86a9-1ac719f406a0;animation-iteration-count:infinite;animation-fill-mode:forwards;animation-duration:1s;animation-delay:-0.152308s" ><path d="M683.94 0L683.94 0L661.01 0L661.01 0Q649.26 0 643.57-4.70L643.57-4.70L643.57-4.70Q637.88-9.40 637.88-19.18L637.88-19.18L637.88-48.41L637.88-48.41Q637.88-58.19 643.57-62.93L643.57-62.93L643.57-62.93Q649.26-67.68 661.01-67.68L661.01-67.68L683.94-67.68L683.94-67.68Q685.73-67.68 686.53-66.88L686.53-66.88L686.53-66.88Q687.33-66.08 687.33-64.30L687.33-64.30L687.33-52.92L687.33-52.92Q687.33-51.14 686.53-50.34L686.53-50.34L686.53-50.34Q685.73-49.54 683.94-49.54L683.94-49.54L665.05-49.54L665.05-49.54Q662.14-49.54 660.73-48.36L660.73-48.36L660.73-48.36Q659.32-47.19 659.32-44.84L659.32-44.84L659.32-22.47L659.32-22.47Q659.32-20.12 660.73-19.04L660.73-19.04L660.73-19.04Q662.14-17.95 665.05-17.95L665.05-17.95L683.94-17.95L683.94-17.95Q685.73-17.95 686.53-17.16L686.53-17.16L686.53-17.16Q687.33-16.36 687.33-14.57L687.33-14.57L687.33-3.38L687.33-3.38Q687.33-1.60 686.53-0.80L686.53-0.80L686.53-0.80Q685.73 0 683.94 0" fill="#8cd0e5" stroke="none" stroke-width="none" transform="translate(-393.95501708984375,25.57546011117789)" style="transform:matrix(1, 0, 0, 1, -393.955, 25.5755);fill:rgb(222, 120, 106);animation-play-state:paused" ></path></g>
<g class="path" style="transform-origin:332.995px -8.26454px;animation-timing-function:linear;animation-play-state:paused;animation-name:static-372d3821-2f81-4dc8-86a9-1ac719f406a0;animation-iteration-count:infinite;animation-fill-mode:forwards;animation-duration:1s;animation-delay:-0.101538s" ><path d="M715.90 0L715.90 0L701.33 0L701.33 0Q699.55 0 698.75-0.80L698.75-0.80L698.75-0.80Q697.95-1.60 697.95-3.38L697.95-3.38L697.95-64.30L697.95-64.30Q697.95-66.08 698.75-66.88L698.75-66.88L698.75-66.88Q699.55-67.68 701.33-67.68L701.33-67.68L715.90-67.68L715.90-67.68Q717.69-67.68 718.49-66.88L718.49-66.88L718.49-66.88Q719.29-66.08 719.29-64.30L719.29-64.30L719.29-42.68L723.05-42.68L732.73-64.58L732.73-64.58Q733.39-66.27 734.52-66.97L734.52-66.97L734.52-66.97Q735.64-67.68 737.43-67.68L737.43-67.68L751.91-67.68L751.91-67.68Q753.50-67.68 754.07-66.88L754.07-66.88L754.07-66.88Q754.63-66.08 753.97-64.58L753.97-64.58L744.39-42.68L744.39-42.68Q749.65-42.39 752.80-38.96L752.80-38.96L752.80-38.96Q755.95-35.53 755.95-29.89L755.95-29.89L755.95-3.38L755.95-3.38Q755.95-1.60 755.15-0.80L755.15-0.80L755.15-0.80Q754.35 0 752.56 0L752.56 0L738.09 0L738.09 0Q736.30 0 735.50-0.80L735.50-0.80L735.50-0.80Q734.70-1.60 734.70-3.38L734.70-3.38L734.70-21.71L734.70-21.71Q734.70-23.22 733.95-24.06L733.95-24.06L733.95-24.06Q733.20-24.91 731.70-24.91L731.70-24.91L719.29-24.91L719.29-3.38L719.29-3.38Q719.29-1.60 718.49-0.80L718.49-0.80L718.49-0.80Q717.69 0 715.90 0" fill="#8cd0e5" stroke="none" stroke-width="none" transform="translate(-393.95501708984375,25.57546011117789)" style="transform:matrix(1, 0, 0, 1, -393.955, 25.5755);fill:rgb(248, 185, 118);animation-play-state:paused" ></path></g>
<g class="path" style="transform-origin:387.515px -20.5795px;animation-timing-function:linear;animation-play-state:paused;animation-name:static-372d3821-2f81-4dc8-86a9-1ac719f406a0;animation-iteration-count:infinite;animation-fill-mode:forwards;animation-duration:1s;animation-delay:-0.0507692s" ><path d="M788.75-24.63L788.75-24.63L774.18-24.63L774.18-24.63Q772.40-24.63 771.60-25.43L771.60-25.43L771.60-25.43Q770.80-26.23 770.71-28.01L770.71-28.01L769.30-64.30L769.30-64.30Q769.20-66.08 769.95-66.88L769.95-66.88L769.95-66.88Q770.71-67.68 772.49-67.68L772.49-67.68L790.45-67.68L790.45-67.68Q792.23-67.68 792.98-66.88L792.98-66.88L792.98-66.88Q793.74-66.08 793.64-64.30L793.64-64.30L792.33-28.01L792.33-28.01Q792.23-26.23 791.39-25.43L791.39-25.43L791.39-25.43Q790.54-24.63 788.75-24.63" fill="#8cd0e5" stroke="none" stroke-width="none" transform="translate(-393.95501708984375,25.57546011117789)" style="transform:matrix(1, 0, 0, 1, -393.955, 25.5755);fill:rgb(252, 221, 201);animation-play-state:paused" ></path></g>
<g class="path" style="transform-origin:387.56px 16.0355px;animation-timing-function:linear;animation-play-state:paused;animation-name:static-372d3821-2f81-4dc8-86a9-1ac719f406a0;animation-iteration-count:infinite;animation-fill-mode:forwards;animation-duration:1s" ><path d="M790.16 0L790.16 0L772.87 0L772.87 0Q771.08 0 770.28-0.80L770.28-0.80L770.28-0.80Q769.48-1.60 769.48-3.38L769.48-3.38L769.48-15.70L769.48-15.70Q769.48-17.48 770.28-18.28L770.28-18.28L770.28-18.28Q771.08-19.08 772.87-19.08L772.87-19.08L790.16-19.08L790.16-19.08Q791.95-19.08 792.75-18.28L792.75-18.28L792.75-18.28Q793.55-17.48 793.55-15.70L793.55-15.70L793.55-3.38L793.55-3.38Q793.55-1.60 792.75-0.80L792.75-0.80L792.75-0.80Q791.95 0 790.16 0" fill="#8cd0e5" stroke="none" stroke-width="none" transform="translate(-393.95501708984375,25.57546011117789)" style="transform:matrix(1, 0, 0, 1, -393.955, 25.5755);fill:rgb(140, 208, 229);animation-play-state:paused" ></path></g></g></g></g></svg>